<svg width="18" height="19" viewBox="0 0 18 19" fill="none" xmlns="http://www.w3.org/2000/svg">
<path d="M2 15.5957C2 16.148 2.44772 16.5957 3 16.5957H10C10.5523 16.5957 11 16.148 11 15.5957V12.5957C11 12.3124 11.096 12.0747 11.288 11.8827C11.48 11.6907 11.7173 11.5951 12 11.5957H15C15.5523 11.5957 16 11.148 16 10.5957V3.59574C16 3.04345 15.5523 2.59574 15 2.59574H3C2.44772 2.59574 2 3.04345 2 3.59574V15.5957ZM2 18.5957C1.45 18.5957 0.979002 18.3997 0.587002 18.0077C0.195002 17.6157 -0.000664969 17.1451 1.69779e-06 16.5957V2.59574C1.69779e-06 2.04574 0.196002 1.57474 0.588002 1.18274C0.980002 0.790735 1.45067 0.595069 2 0.595735H16C16.55 0.595735 17.021 0.791735 17.413 1.18374C17.805 1.57574 18.0007 2.0464 18 2.59574V12.1815C18 12.4467 17.8946 12.7011 17.7071 12.8886L12.2929 18.3028C12.1054 18.4904 11.851 18.5957 11.5858 18.5957H2ZM5 11.5957C4.71667 11.5957 4.479 11.4997 4.287 11.3077C4.095 11.1157 3.99934 10.8784 4 10.5957C4 10.3124 4.096 10.0747 4.288 9.88274C4.48 9.69073 4.71734 9.59507 5 9.59574H8C8.28334 9.59574 8.521 9.69174 8.713 9.88374C8.905 10.0757 9.00067 10.3131 9 10.5957C9 10.8791 8.904 11.1167 8.712 11.3087C8.52 11.5007 8.28267 11.5964 8 11.5957H5ZM5 7.59574C4.71667 7.59574 4.479 7.49974 4.287 7.30774C4.095 7.11574 3.99934 6.8784 4 6.59574C4 6.3124 4.096 6.07474 4.288 5.88274C4.48 5.69074 4.71734 5.59507 5 5.59574H13C13.2833 5.59574 13.521 5.69174 13.713 5.88374C13.905 6.07574 14.0007 6.31307 14 6.59574C14 6.87907 13.904 7.11674 13.712 7.30874C13.52 7.50074 13.2827 7.5964 13 7.59574H5Z" fill="#74A2B2"/>
</svg>
