<svg width="18" height="21" viewBox="0 0 18 21" fill="none" xmlns="http://www.w3.org/2000/svg">
<path d="M0.75 3.09573C0.75 2.43269 1.01339 1.79681 1.48223 1.32797C1.95107 0.859126 2.58696 0.595734 3.25 0.595734H14.75C15.0783 0.595734 15.4034 0.660398 15.7067 0.786035C16.01 0.911672 16.2856 1.09582 16.5178 1.32797C16.7499 1.56011 16.9341 1.83571 17.0597 2.13902C17.1853 2.44234 17.25 2.76743 17.25 3.09573V17.3457C17.25 17.5446 17.171 17.7354 17.0303 17.8761C16.8897 18.0167 16.6989 18.0957 16.5 18.0957H3.03538C2.60163 18.0957 2.23618 18.4961 2.54289 18.8028C2.73043 18.9904 2.98478 19.0957 3.25 19.0957H16.5C16.6989 19.0957 16.8897 19.1748 17.0303 19.3154C17.171 19.4561 17.25 19.6468 17.25 19.8457C17.25 20.0446 17.171 20.2354 17.0303 20.3761C16.8897 20.5167 16.6989 20.5957 16.5 20.5957H3.25C2.58696 20.5957 1.95107 20.3323 1.48223 19.8635C1.01339 19.3947 0.75 18.7588 0.75 18.0957V3.09573ZM9 6.59573C9.26522 6.59573 9.51957 6.49038 9.70711 6.30284C9.89464 6.1153 10 5.86095 10 5.59573C10 5.33052 9.89464 5.07616 9.70711 4.88863C9.51957 4.70109 9.26522 4.59573 9 4.59573C8.73478 4.59573 8.48043 4.70109 8.29289 4.88863C8.10536 5.07616 8 5.33052 8 5.59573C8 5.86095 8.10536 6.1153 8.29289 6.30284C8.48043 6.49038 8.73478 6.59573 9 6.59573ZM8.25 8.34573V13.3457C8.25 13.5446 8.32902 13.7354 8.46967 13.8761C8.61032 14.0167 8.80109 14.0957 9 14.0957C9.19891 14.0957 9.38968 14.0167 9.53033 13.8761C9.67098 13.7354 9.75 13.5446 9.75 13.3457V8.34573C9.75 8.14682 9.67098 7.95606 9.53033 7.8154C9.38968 7.67475 9.19891 7.59573 9 7.59573C8.80109 7.59573 8.61032 7.67475 8.46967 7.8154C8.32902 7.95606 8.25 8.14682 8.25 8.34573Z" fill="#74A2B2"/>
</svg>
